<svg xmlns="http://www.w3.org/2000/svg" xmlns:xlink="http://www.w3.org/1999/xlink" width="631.483" height="593.941" xmlns:v="https://vecta.io/nano"><style><![CDATA[.B{fill:#ffb8b8}.C{fill:#2f2e41}.D{fill:#00bfa6}]]></style><path d="M506.094 459.941c-14.359 0-26-11.641-26-26s11.641-26 26-26 26 11.641 26 26c-.016 14.353-11.647 25.984-26 26z" fill="#ccc"/><path d="M518.094 432.941h-11v-12.5a1 1 0 1 0-2 0v12.5h-11a1 1 0 1 0 0 2h11v12.5a1 1 0 1 0 2 0v-12.5h11a1 1 0 1 0 0-2z" fill="#fff"/><path d="M606.22 581.779l-11.432-.001-5.436-44.096 16.872.001-.004 44.096z" class="B"/><use xlink:href="#B" class="C"/><path d="M560.72 581.779l-11.432-.001-5.436-44.096 16.872.001-.004 44.096z" class="B"/><use xlink:href="#B" x="-45.5" class="C"/><g class="B"><path d="M615.027 429.328c-1.863-2.057-2.718-4.834-2.337-7.582a9.38 9.38 0 0 1 4.313-6.66l-3.541-21.133 12.318-5.284 4.581 29.915a9.43 9.43 0 0 1-15.334 10.745zm-96.438-9.985c2.177-1.721 3.479-4.318 3.557-7.092s-1.077-5.44-3.154-7.281l6.984-20.258-11.276-7.246-9.46 28.747a9.43 9.43 0 0 0 13.349 13.13z"/><circle cx="577.139" cy="245.542" r="24.561"/></g><path d="M517.83 404.187a4.5 4.5 0 0 1-1.245-.176l-7.159-2.055a4.51 4.51 0 0 1-3.088-5.551l14.774-52.162 20.602-50.575c2.049-5.028 6.329-8.325 11.17-8.605 4.517-.221 8.741 2.239 10.778 6.277h0a15.62 15.62 0 0 1 .357 13.771l-23.417 51.21-18.616 45.083a4.5 4.5 0 0 1-4.156 2.784z" fill="#3f3d56"/><path d="M590.999 266.14l-13.647.243a9.07 9.07 0 0 1-7.376-3.547c-1.755-2.287-2.32-5.273-1.52-8.043a21.13 21.13 0 0 0 .656-3.013c.153-1.111.183-2.236.09-3.354a4.95 4.95 0 0 0-9.554-1.408h0c-2.295.033-7.183-.715-9.478-.683-4.872-12.49 5.745-28.833 17.174-34.972 11.651-6.258 26.775.109 31.241 13.152 6.198.111 11.235 6.225 12.033 13.106s-2.032 14.067-6.363 19.342-10.018 9.119-13.256 9.176zm-44.858 311.522c-2.289-.013-4.206-1.736-4.461-4.01l-5.063-170.235 63.787 4.541.049.41c14.415 120.663 9.487 162.432 9.436 162.839a4.5 4.5 0 0 1-5.075 4.203l-14.097.338a4.5 4.5 0 0 1-3.989-4.296l-13.171-123.3c-.168-.661-.786-1.106-1.466-1.056a1.46 1.46 0 0 0-1.439 1.177l-5.089 123.704a4.48 4.48 0 0 1-4.041 4.67l-14.932.993a4.46 4.46 0 0 1-.447.022z" class="C"/><g fill="#3f3d56"><path d="M572.61 423.757a37.35 37.35 0 0 1-1.145-.018c-18.342-.552-32.692-14.429-36.653-18.669a4.48 4.48 0 0 1-1.081-4.097l10.581-44.764-2.807-38.917a38.37 38.37 0 0 1 10.506-29.633c6.313-6.67 15.212-10.269 24.386-9.866 17.855.852 31.941 16.812 32.069 36.333.198 30.235-.693 32.312-.985 32.995-8.911 20.797-4.044 49.989-2.34 58.441.309 1.533-.196 3.117-1.337 4.188-9.8 9.299-20.29 14.008-31.193 14.008z"/><path d="M618.675 412.379c-2.096-.001-3.913-1.451-4.38-3.494l-10.917-47.557-14.631-54.357a15.62 15.62 0 0 1 2.627-13.522c2.678-3.644 7.248-5.371 11.667-4.41 4.729 1.076 8.405 5.035 9.595 10.333l11.955 53.229 5.962 53.941a4.51 4.51 0 0 1-3.963 4.965l-7.4.844c-.171.02-.343.03-.516.03z"/></g><path d="M30.832 417.507c2.622-1.798 4.314-4.664 4.619-7.829s-.807-6.302-3.037-8.568l4.167-93.018-21.216 2.381 1.233 90.985a10.8 10.8 0 0 0-.011 14.346c3.632 4.094 9.751 4.826 14.245 1.702zm38.702 157.459l12.075 2.123 11.934-45.564-15.821-3.133-8.188 46.574z" class="B"/><path d="M102.925 592.395l-37.949-6.671h0l2.578-14.662h0l23.287 4.094c3.889.684 7.346 2.884 9.613 6.117s3.155 7.234 2.472 11.123h0 0z" class="C"/><path d="M36.392 581.01h12.26l5.832-47.288-18.094.001.002 47.287z" class="B"/><path d="M72.296 592.393l-38.531.002h0l-.001-14.887h0l23.644-.001a14.89 14.89 0 0 1 14.888 14.886h0 0zm16.249-24.332a4.75 4.75 0 0 1-.573-.034l-14.43-1.187a4.88 4.88 0 0 1-4.243-5.66l13.325-74.681-9.004-47.474c-.152-.798-.868-1.361-1.679-1.321s-1.468.672-1.54 1.481L59.146 565.813c-.257 2.641-2.561 4.604-5.21 4.437l-13.595-.506a4.89 4.89 0 0 1-4.536-4.631l-.914-151.768 70.481-8.81 4.924 76.041-.02.081-16.991 83.675c-.533 2.187-2.49 3.727-4.741 3.73z" class="C"/><circle cx="58.129" cy="223.255" r="24.561" class="B"/><g class="D"><path d="M81.272 424.437a20.11 20.11 0 0 1-10.857-3.106c-11.897-7.436-25.411-4.481-32.407-2.057a4.88 4.88 0 0 1-4.221-.481 4.81 4.81 0 0 1-2.224-3.552L18.84 301.617c-2.132-19.038 9.336-36.937 27.268-42.56h0q1.011-.317 2.055-.601a39.57 39.57 0 0 1 32.972 5.723c9.782 6.764 16.068 17.511 17.167 29.353l10.71 114.387c.148 1.501-.418 2.985-1.527 4.007-3.754 3.473-14.652 12.511-26.214 12.512z"/><path d="M42.531 325.983l-28.703-3.156a5.72 5.72 0 0 1-4.905-7.134l7.306-27.846c1.006-8.694 8.858-14.935 17.555-13.953s14.96 8.817 14.001 17.517l1.085 28.675a5.72 5.72 0 0 1-6.338 5.898z"/></g><path d="M108.898 413.524c2.386-2.101 3.72-5.15 3.642-8.329s-1.56-6.159-4.047-8.139l-7.073-92.842-20.789 4.68 12.203 90.414c-3.119 4.497-2.381 10.616 1.718 14.243s10.262 3.615 14.346-.027z" class="B"/><path d="M72.661 320.146a5.71 5.71 0 0 1-1.818-4.4l1.085-28.675c-.958-8.7 5.304-16.535 14.001-17.517s16.549 5.259 17.555 13.953l7.306 27.846a5.72 5.72 0 0 1-4.905 7.134l-28.703 3.156a5.71 5.71 0 0 1-4.52-1.498z" class="D"/><path d="M56.668 248.741c-.437 0-.872-.051-1.297-.151l-.125-.03c-21.594-3.304-26.367-15.812-27.414-21.035-1.084-5.408.15-10.628 2.94-12.656-1.521-4.803-1.277-9.061.727-12.662 3.495-6.28 11.081-8.404 12.098-8.664 6.058-4.469 13.306-1.486 14.625-.881 11.719-4.335 16.198-.727 17.008.079 5.238.941 8.431 2.964 9.491 6.016 1.991 5.731-4.305 12.86-4.574 13.161l-.14.156-9.38.447a6.36 6.36 0 0 0-5.981 7.317h0c.254 1.136.575 2.257.96 3.355 1.602 5.006 2.802 9.283 1.254 10.909a2.51 2.51 0 0 1-2.625.455c-1.467-.392-2.462-.31-2.959.245-.77.859-.535 3.035.662 6.125a5.74 5.74 0 0 1-1.046 5.847 5.57 5.57 0 0 1-4.226 1.967z" class="C"/><path d="M141 593.941H1a1 1 0 1 1 0-2h140a1 1 0 1 1 0 2zm488 0H489a1 1 0 1 1 0-2h140a1 1 0 1 1 0 2z" fill="#ccc"/><path d="M428.713 424h-242c-19.321-.022-34.978-15.679-35-35V35c.022-19.321 15.679-34.978 35-35h242c19.321.022 34.978 15.679 35 35v354c-.022 19.321-15.679 34.978-35 35z" fill="#fff"/><g fill="#ccc"><use xlink:href="#C"/><path d="M390.713 72.97h-166c-16.957-.082-17.028-25.912.001-26h165.999c16.945.079 17.037 25.911 0 26z"/><use xlink:href="#C" y="48"/><use xlink:href="#C" y="96"/></g><path d="M387.713 223.829h-160c-9.108-.01-16.49-7.392-16.5-16.5v-89.6c.01-9.108 7.392-16.49 16.5-16.5h160c9.108.01 16.49 7.392 16.5 16.5v89.6c-.01 9.108-7.392 16.49-16.5 16.5z" class="D"/><path d="M428.713 424h-242c-19.321-.022-34.978-15.679-35-35V35c.022-19.321 15.679-34.978 35-35h242c19.321.022 34.978 15.679 35 35v354c-.022 19.321-15.679 34.978-35 35zm-242-418c-16.009.018-28.982 12.991-29 29v354c.018 16.009 12.991 28.982 29 29h242c16.009-.018 28.982-12.991 29-29V35c-.018-16.009-12.991-28.982-29-29z" fill="#e6e6e6"/><defs ><path id="B" d="M586.622 578.511h22.048a0 0 0 0 1 0 0v13.882a0 0 0 0 1 0 0h-35.93a0 0 0 0 1 0 0h0a13.882 13.882 0 0 1 13.882-13.882z"/><path id="C" d="M390.713 281.029h-166c-16.957-.082-17.028-25.911.001-26h165.999c16.945.079 17.037 25.911 0 26z"/></defs></svg>